<svg width="120" height="102" viewBox="0 0 120 102" fill="none" xmlns="http://www.w3.org/2000/svg">
<path d="M37.8945 22.1006L41.8545 9.50059H43.6545L47.6145 22.1006H45.8145L44.8245 19.0406H40.6845L39.6945 22.1006H37.8945ZM41.1345 17.4206H44.3745L42.7545 12.2906L41.1345 17.4206ZM50.6752 14.1806C50.8192 13.9766 50.9992 13.7966 51.2152 13.6406C51.3952 13.5086 51.6172 13.3886 51.8812 13.2806C52.1572 13.1606 52.4752 13.1006 52.8352 13.1006C53.1952 13.1006 53.5372 13.1786 53.8612 13.3346C54.1852 13.4786 54.4732 13.6886 54.7252 13.9646C54.9772 14.2286 55.1752 14.5526 55.3192 14.9366C55.4632 15.3086 55.5352 15.7166 55.5352 16.1606V22.1006L53.9152 22.1006V16.1606C53.9152 15.7526 53.7772 15.4106 53.5012 15.1346C53.2252 14.8586 52.8832 14.7206 52.4752 14.7206C52.1992 14.7206 51.9472 14.7686 51.7192 14.8646C51.5032 14.9606 51.3172 15.0626 51.1612 15.1706C50.9692 15.3026 50.8072 15.4526 50.6752 15.6206V22.1006H49.0552V14.9006H47.7952V13.2806H50.6752V14.1806ZM64.351 18.9506C64.351 19.4426 64.267 19.8926 64.099 20.3006C63.943 20.7086 63.715 21.0626 63.415 21.3626C63.127 21.6506 62.779 21.8786 62.371 22.0466C61.963 22.2026 61.513 22.2806 61.021 22.2806C60.529 22.2806 60.079 22.2026 59.671 22.0466C59.263 21.8786 58.909 21.6506 58.609 21.3626C58.321 21.0626 58.093 20.7086 57.925 20.3006C57.769 19.8926 57.691 19.4426 57.691 18.9506V16.4306C57.691 15.9386 57.769 15.4886 57.925 15.0806C58.093 14.6726 58.321 14.3246 58.609 14.0366C58.909 13.7366 59.263 13.5086 59.671 13.3526C60.079 13.1846 60.529 13.1006 61.021 13.1006C61.513 13.1006 61.963 13.1846 62.371 13.3526C62.779 13.5086 63.127 13.7366 63.415 14.0366C63.715 14.3246 63.943 14.6726 64.099 15.0806C64.267 15.4886 64.351 15.9386 64.351 16.4306V18.9506ZM59.311 18.9506C59.311 19.4546 59.467 19.8686 59.779 20.1926C60.103 20.5046 60.517 20.6606 61.021 20.6606C61.525 20.6606 61.933 20.5046 62.245 20.1926C62.569 19.8686 62.731 19.4546 62.731 18.9506V16.4306C62.731 15.9266 62.569 15.5186 62.245 15.2066C61.933 14.8826 61.525 14.7206 61.021 14.7206C60.517 14.7206 60.103 14.8826 59.779 15.2066C59.467 15.5186 59.311 15.9266 59.311 16.4306V18.9506ZM68.3061 14.1806C68.3061 14.1686 68.3481 14.1086 68.4321 14.0006C68.5281 13.8806 68.6601 13.7546 68.8281 13.6226C69.0081 13.4906 69.2241 13.3706 69.4761 13.2626C69.7401 13.1546 70.0401 13.1006 70.3761 13.1006C70.7601 13.1006 71.0901 13.1786 71.3661 13.3346C71.6421 13.4786 71.8761 13.6406 72.0681 13.8206C72.2841 14.0366 72.4701 14.2766 72.6261 14.5406C72.8181 14.2766 73.0341 14.0366 73.2741 13.8206C73.4781 13.6406 73.7301 13.4786 74.0301 13.3346C74.3301 13.1786 74.6721 13.1006 75.0561 13.1006C75.3921 13.1006 75.7161 13.1786 76.0281 13.3346C76.3401 13.4786 76.6161 13.6886 76.8561 13.9646C77.1081 14.2286 77.3061 14.5526 77.4501 14.9366C77.5941 15.3086 77.6661 15.7166 77.6661 16.1606V22.1006H76.0461V16.1606C76.0461 15.7526 75.9081 15.4106 75.6321 15.1346C75.3681 14.8586 75.0561 14.7206 74.6961 14.7206C74.4441 14.7206 74.2161 14.7686 74.0121 14.8646C73.8081 14.9606 73.6281 15.0626 73.4721 15.1706C73.2921 15.3026 73.1301 15.4526 72.9861 15.6206V22.1006H71.3661V16.1606C71.3661 15.7526 71.2281 15.4106 70.9521 15.1346C70.6881 14.8586 70.3761 14.7206 70.0161 14.7206C69.7641 14.7206 69.5361 14.7686 69.3321 14.8646C69.1281 14.9606 68.9481 15.0626 68.7921 15.1706C68.6121 15.3026 68.4501 15.4526 68.3061 15.6206V22.1006H66.6861V14.9006H65.4261V13.2806H68.3061V14.1806ZM82.1619 22.1006C81.3459 22.1006 80.6919 21.8546 80.1999 21.3626C79.7079 20.8706 79.4619 20.2166 79.4619 19.4006C79.4619 18.5846 79.7079 17.9306 80.1999 17.4386C80.6919 16.9466 81.3459 16.7006 82.1619 16.7006H84.3219V16.1606C84.3219 15.8006 84.2019 15.5006 83.9619 15.2606C83.7219 15.0206 83.4219 14.9006 83.0619 14.9006H80.7219V13.2806H83.0619C83.9259 13.2806 84.6219 13.5446 85.1499 14.0726C85.6779 14.6006 85.9419 15.2966 85.9419 16.1606V22.1006H82.1619ZM82.1619 18.3206C81.8499 18.3206 81.5919 18.4226 81.3879 18.6266C81.1839 18.8306 81.0819 19.0886 81.0819 19.4006C81.0819 19.7126 81.1839 19.9706 81.3879 20.1746C81.5919 20.3786 81.8499 20.4806 82.1619 20.4806H84.3219V18.3206H82.1619ZM90.2612 22.1006H88.6412V11.1206H87.3812V9.50059H90.2612V22.1006ZM97.4654 13.2806H99.1754L96.2054 23.1806C95.9294 24.0806 95.5514 24.7526 95.0714 25.1966C94.6034 25.6526 93.9614 25.8806 93.1454 25.8806H92.6054V24.2606H93.1454C93.5534 24.2606 93.8714 24.1586 94.0994 23.9546C94.3274 23.7506 94.4894 23.4926 94.5854 23.1806L94.9454 22.0106L92.5154 14.9006H91.3454V13.2806H93.6854L95.6834 19.4906L97.4654 13.2806Z" fill="white"/>
<path d="M0 85.6265L7.89474 71.9525H23.6842L31.5789 85.6265L23.6842 99.3006H7.89474L0 85.6265Z" fill="#183438"/>
<path d="M0 50.8912L7.89474 37.2171H23.6842L31.5789 50.8912L23.6842 64.5653H7.89474L0 50.8912Z" fill="#306870"/>
<path d="M0 16.1539L7.89474 2.4798H23.6842L31.5789 16.1539L23.6842 29.828H7.89474L0 16.1539Z" fill="#50ADBB"/>
<path d="M37.8945 86.0338L45.7893 72.3597H61.5787L69.4735 86.0338L61.5787 99.7079H45.7893L37.8945 86.0338Z" fill="#306870"/>
<path d="M37.8945 50.8912L45.7893 37.2171H61.5787L69.4735 50.8912L61.5787 64.5653H45.7893L37.8945 50.8912Z" fill="#489CA8"/>
<path d="M75.7896 86.0338L83.6843 72.3597H99.4738L107.368 86.0338L99.4738 99.7079H83.6843L75.7896 86.0338Z" fill="#50ADBB"/>
<path d="M78.3224 47.5949L82.3382 40.7978L90.2325 40.8771L94.1111 47.7534L90.0953 54.5505L82.2009 54.4712L78.3224 47.5949Z" fill="white"/>
<path d="M89.0465 54.0285L93.0623 47.2314L100.957 47.3107L104.835 54.187L100.819 60.9841L92.9251 60.9048L89.0465 54.0285Z" fill="white"/>
</svg>
